# xmcd CD database file
#
# Track frame offsets:
#	150
#	16987
#	39620
#	55695
#	70439
#	89574
#	103373
#	118671
#	129656
#
# Disc length: 1966 seconds
#
# Revision: 0
# Processed by: cddbd v1.5.2PL0 Copyright (c) Steve Scherf et al.
# Submitted via: CDex 1.51
#
DISCID=8107ac09
DTITLE=Carlo Little - Never Stop Rocking
DYEAR=2000
DGENRE=Blues
TTITLE0=It's All Over Now
TTITLE1=Mystery Train
TTITLE2=Born In The Country
TTITLE3=Midnight Special
TTITLE4=Mississippi
TTITLE5=Iko, Iko
TTITLE6=Country Line Special
TTITLE7=Chicago Calling
TTITLE8=Never Stop Rockin'
EXTD=YEAR: 2000
EXTT0=
EXTT1=
EXTT2=
EXTT3=
EXTT4=
EXTT5=
EXTT6=
EXTT7=
EXTT8=
PLAYORDER=
